<?xml version="1.0" encoding="UTF-8" standalone="no"?>
<svg
   xmlns:svg="http://www.w3.org/2000/svg"
   xmlns="http://www.w3.org/2000/svg"
   version="1.1"
   width="95.297234"
   height="83.5625"
   viewBox="0 0 95.297234 83.5625"
   id="svg3036"
   xml:space="preserve"><metadata
   id="metadata3085"></metadata><defs
   id="defs3083" />
<g
   transform="translate(-355.50431,-240)"
   id="layer_2"
   style="display:none">
	
		<path
   d="m 355.291,286.137 c -4.334,-14.637 -5.667,-33.887 25.666,-44.887 9.648,-3.387 18.263,-5.75 19.334,-18.75 H 400 c 1.071,13 9.686,15.363 19.334,18.75 31.333,11 30,30.208 25.666,44.845 -1.333,8.215 -19,13.884 -44.666,13.884 l -0.334,0.02 c -25.666,0 -43.333,-5.653 -44.667,-13.867 l -0.042,0.005 z"
   id="path3039"
   style="fill:#bf614d;stroke:#000000;stroke-linecap:round;stroke-linejoin:bevel;stroke-miterlimit:10;display:inline" />
</g>
<g
   transform="translate(-355.50431,-240)"
   id="layer_1"
   style="display:none">
	<path
   d="M 400.334,300 C 426,300 443.667,294.435 445,286.22 442.011,275.091 416.334,271.5 400.334,271.5 H 400 c -16,0 -41.677,3.591 -44.667,14.721 1.333,8.214 19,13.83 44.667,13.83 L 400.334,300 z"
   id="path3042"
   style="fill:#c7a187;stroke:#000000;stroke-miterlimit:10;display:inline" />
</g>
<g
   transform="translate(-355.50431,-240)"
   id="layer_3">
	<path
   d="m 358.291,309.137 c -4.334,-14.637 -5.667,-39.887 25.666,-50.887 9.648,-3.387 18.263,-4.75 19.334,-17.75 H 403 c 1.071,13 9.686,14.363 19.334,17.75 31.333,11 30,36.208 25.666,50.845 -1.333,8.215 -19,13.884 -44.666,13.884 l -0.334,0.02 c -25.666,0 -43.333,-5.652 -44.667,-13.866 l -0.042,0.004 z"
   id="path3045"
   style="fill:#78240f;stroke:#000000;stroke-linecap:round;stroke-linejoin:bevel;stroke-miterlimit:10" />
</g>
<g
   transform="translate(-355.50431,-240)"
   id="layer_4">
	<path
   d="M 403.334,323 C 429,323 446.667,317.435 448,309.22 445.011,298.091 419.334,294.5 403.334,294.5 H 403 c -16,0 -41.677,3.591 -44.667,14.721 1.333,8.214 19,13.83 44.667,13.83 L 403.334,323 z"
   id="path3048"
   style="fill:#c7a187;stroke:#000000;stroke-miterlimit:10" />
</g>
<g
   transform="translate(-355.50431,-240)"
   id="layer_5">
	<circle
   cx="376.66699"
   cy="303.33401"
   r="1"
   id="circle3051"
   style="fill:#631f1a" />
	<circle
   cx="383.66599"
   cy="308.33401"
   r="1"
   id="circle3053"
   style="fill:#631f1a" />
	<circle
   cx="399.66599"
   cy="303.33401"
   r="1"
   id="circle3055"
   style="fill:#631f1a" />
	<circle
   cx="390.66599"
   cy="304.33401"
   r="1"
   id="circle3057"
   style="fill:#631f1a" />
	<circle
   cx="420.66599"
   cy="315.33401"
   r="1"
   id="circle3059"
   style="fill:#631f1a" />
	<circle
   cx="394.66599"
   cy="312.33401"
   r="1"
   id="circle3061"
   style="fill:#631f1a" />
	<circle
   cx="413.66599"
   cy="305.33401"
   r="1"
   id="circle3063"
   style="fill:#631f1a" />
	<circle
   cx="402.66599"
   cy="317.33401"
   r="1"
   id="circle3065"
   style="fill:#631f1a" />
	<circle
   cx="431.66599"
   cy="308.33401"
   r="1"
   id="circle3067"
   style="fill:#631f1a" />
	<circle
   cx="369.66599"
   cy="312.33401"
   r="1"
   id="circle3069"
   style="fill:#631f1a" />
	<circle
   cx="379.66599"
   cy="315.33401"
   r="1"
   id="circle3071"
   style="fill:#631f1a" />
	<circle
   cx="424.66599"
   cy="302.33401"
   r="1"
   id="circle3073"
   style="fill:#631f1a" />
	<circle
   cx="432.66599"
   cy="315.33401"
   r="1"
   id="circle3075"
   style="fill:#631f1a" />
	<circle
   cx="409.66599"
   cy="311.33401"
   r="1"
   id="circle3077"
   style="fill:#631f1a" />
	<circle
   cx="421.66599"
   cy="308.33401"
   r="1"
   id="circle3079"
   style="fill:#631f1a" />
</g>
</svg>